# xmcd
#
# Track frame offsets:
#	150
#	26283
#	52932
#	78801
#	101882
#	128984
#	159870
#	191577
#	219659
#	244766
#	265424
#	298795
#
# Disc length: 4440 seconds
#
# Revision: 2
# Processed by: cddbd v1.5.2PL0 Copyright (c) Steve Scherf et al.
# Submitted via: audiograbber 1.83.01
#
DISCID=a311560c
DTITLE=Stillste Stund - Blendwerk Antikunst
DYEAR=2005
DGENRE=Gothic
TTITLE0=Untertage
TTITLE1=Apocalyptic Noon
TTITLE2=Alice II (Nie allein mit dir)
TTITLE3=Kein Mittel gegen dieses Gift
TTITLE4=Darksomely
TTITLE5=Ananke
TTITLE6=Die Teufelsbuhle
TTITLE7=Secludia X
TTITLE8=Obsessed With Purple
TTITLE9=Geistunter
TTITLE10=Blendwerk Antikunst (Psychoclonehardcorechrist)
TTITLE11=Lass uns der Regen sein
EXTD=
EXTT0=
EXTT1=
EXTT2=
EXTT3=
EXTT4=
EXTT5=
EXTT6=
EXTT7=
EXTT8=
EXTT9=
EXTT10=
EXTT11=
PLAYORDER=
